# xmcd CD database file
#
# Track frame offsets:
#	150
#	21082
#	55774
#	79138
#	103395
#	124756
#	140989
#	182198
#
# Disc length: 2651 seconds
#
# Revision: 1
# Processed by: cddbd v1.5.2PL0 Copyright (c) Steve Scherf et al.
# Submitted via: CDex 1.70beta2
#
DISCID=730a5908
DTITLE=Spielraum - Streichen
DYEAR=1900
DGENRE=東方アレンジ系
TTITLE0=vualkyrie
TTITLE1=The Doll Trial
TTITLE2=have you ever seen the primitive night?
TTITLE3=Yad Wen (Tsew Divad remix)
TTITLE4=冥土サクヤと血のワルツ
TTITLE5=flower track
TTITLE6=Ultimate Free
TTITLE7=～Extra track～ さくらさくらな桜
EXTD=
EXTT0=
EXTT1=
EXTT2=
EXTT3=
EXTT4=
EXTT5=
EXTT6=
EXTT7=
PLAYORDER=
